<svg width="24" height="24" viewBox="0 0 24 24" fill="none" xmlns="http://www.w3.org/2000/svg">
<path d="M11.7233 7.3206C12.9448 7.3206 14.0957 7.88502 14.9392 8.76736V8.76997C14.9392 8.34626 15.2127 8.02574 15.5907 8.02574H15.6867C16.2831 8.02574 16.4026 8.61206 16.4026 8.79707L16.4051 15.3821C16.3636 15.8136 16.8326 16.0366 17.0931 15.7594C18.1056 14.6738 19.319 10.173 16.4626 7.56711C13.7987 5.13481 10.2233 5.53663 8.3224 6.9021C6.30196 8.3572 5.0105 11.5713 6.26496 14.592C7.63492 17.8852 11.5513 18.8676 13.8822 17.8878C15.0622 17.3912 15.6062 19.0516 14.3797 19.5952C12.5313 20.4171 7.37993 20.3332 4.974 15.9903C3.34856 13.0566 3.43455 7.89597 7.74742 5.22237C11.0438 3.17573 15.3932 3.74277 18.0151 6.59617C20.755 9.58195 20.5965 15.1684 17.9216 17.3401C16.7101 18.3277 14.9112 17.3672 14.9242 15.9282L14.9107 15.4592C14.0672 16.3301 12.9448 16.8408 11.7233 16.8408C9.30687 16.8408 7.17943 14.6227 7.17943 12.1065C7.17943 9.56319 9.30687 7.32164 11.7233 7.32164V7.3206ZM14.7627 11.9246C14.6712 10.0812 13.3587 8.97114 11.7728 8.97114H11.7128C9.88485 8.97114 8.86938 10.4721 8.86938 12.1737C8.86938 14.0817 10.0958 15.2867 11.7053 15.2867C13.5017 15.2867 14.6812 13.9165 14.7672 12.2957L14.7627 11.9246Z" fill="#1A1A1A"/>
</svg>
