<svg width="16" height="16" viewBox="0 0 16 16" fill="none" xmlns="http://www.w3.org/2000/svg">
<path d="M8.77653 1.817C11.6089 2.17328 13.8267 4.39109 14.183 7.22347C14.2364 7.67772 14.6194 8.00727 15.0648 8.00727C15.1004 8.00727 15.136 8.00727 15.1717 7.99836C15.6615 7.93602 16.0089 7.49067 15.9466 7.0008C15.7277 5.23208 14.9244 3.58712 13.6642 2.3269C12.404 1.06669 10.759 0.263419 8.9903 0.0445355C8.50042 -0.00890564 8.05508 0.338462 8.00164 0.82834C7.93929 1.31822 8.28666 1.76356 8.77653 1.817ZM9.11499 3.69635C8.64293 3.57165 8.15305 3.85667 8.02836 4.33764C7.90366 4.81861 8.18868 5.29959 8.66965 5.42428C9.13051 5.54391 9.55104 5.78451 9.88772 6.12119C10.2244 6.45787 10.465 6.8784 10.5846 7.33926C10.644 7.56823 10.7917 7.76432 10.9954 7.88454C11.1991 8.00476 11.4421 8.03929 11.6713 7.98055C12.1433 7.85586 12.4283 7.36598 12.3126 6.89391C12.1121 6.12475 11.7101 5.42296 11.148 4.8609C10.5859 4.29885 9.88416 3.89685 9.11499 3.69635ZM14.4324 10.9109L12.17 10.6526C11.904 10.6214 11.6344 10.6508 11.3814 10.7388C11.1284 10.8267 10.8986 10.9708 10.7093 11.1603L9.07046 12.7992C6.54197 11.5132 4.48679 9.45803 3.20084 6.92954L4.84861 5.28177C5.2316 4.89878 5.41864 4.36436 5.3563 3.82105L5.098 1.57652C5.0475 1.14202 4.83898 0.741262 4.51214 0.450552C4.18529 0.159843 3.76296 -0.000518607 3.32553 1.26004e-06H1.78464C0.778169 1.26004e-06 -0.0590761 0.837246 0.00327192 1.84372C0.475336 9.45018 6.55872 15.5247 14.1563 15.9967C15.1628 16.0591 16 15.2218 16 14.2154V12.6745C16.0089 11.7749 15.332 11.0178 14.4324 10.9109Z" fill="#1A1A1A"/>
</svg>
