<svg width="17" height="21" viewBox="0 0 17 21" fill="none" xmlns="http://www.w3.org/2000/svg">
<path d="M11.4001 0.200012C12.8322 0.200012 14.2057 0.768939 15.2184 1.78164C16.2311 2.79433 16.8001 4.16784 16.8001 5.60001C16.8001 7.03218 16.2311 8.40569 15.2184 9.41839C14.2057 10.4311 12.8322 11 11.4001 11C9.96789 11 8.59438 10.4311 7.58168 9.41839C6.56899 8.40569 6.00006 7.03218 6.00006 5.60001C6.00006 4.16784 6.56899 2.79433 7.58168 1.78164C8.59438 0.768939 9.96789 0.200012 11.4001 0.200012ZM12.1489 8.60601C12.1529 8.50508 12.1365 8.40437 12.1007 8.30992C12.0648 8.21548 12.0103 8.12924 11.9403 8.0564C11.8703 7.98356 11.7863 7.9256 11.6934 7.88601C11.6005 7.84643 11.5005 7.82602 11.3995 7.82602C11.2984 7.82602 11.1985 7.84643 11.1055 7.88601C11.0126 7.9256 10.9286 7.98356 10.8586 8.0564C10.7886 8.12924 10.7341 8.21548 10.6983 8.30992C10.6624 8.40437 10.646 8.50508 10.6501 8.60601C10.6501 8.80492 10.7291 8.99569 10.8697 9.13634C11.0104 9.27699 11.2011 9.35601 11.4001 9.35601C11.599 9.35601 11.7897 9.27699 11.9304 9.13634C12.071 8.99569 12.1501 8.80492 12.1501 8.60601H12.1489ZM13.6249 4.34361C13.6249 3.01881 12.6373 2.00361 11.4001 2.00361C10.1425 2.00361 9.16326 2.98521 9.17646 4.34961C9.17725 4.42841 9.19355 4.50627 9.22443 4.57877C9.25531 4.65126 9.30017 4.71696 9.35644 4.77212C9.41271 4.82728 9.4793 4.87081 9.55239 4.90024C9.62549 4.92966 9.70367 4.9444 9.78246 4.94361C9.86125 4.94282 9.93912 4.92652 10.0116 4.89564C10.0841 4.86476 10.1498 4.81991 10.205 4.76363C10.2601 4.70736 10.3037 4.64078 10.3331 4.56768C10.3625 4.49458 10.3772 4.41641 10.3765 4.33761C10.3693 3.64281 10.8085 3.20361 11.4001 3.20361C11.9665 3.20361 12.4237 3.67401 12.4237 4.34361C12.4237 4.58601 12.3397 4.72161 11.9917 4.99641L11.6593 5.25441C11.0521 5.73921 10.8001 6.11481 10.8001 6.80001C10.7998 6.94995 10.8557 7.09455 10.9567 7.20535C11.0577 7.31615 11.1965 7.38512 11.3458 7.39866C11.4952 7.41221 11.6442 7.36936 11.7635 7.27855C11.8828 7.18774 11.9637 7.05555 11.9905 6.90801L12.0037 6.72081C12.0241 6.54321 12.1237 6.41601 12.4189 6.18321L12.7513 5.92521C13.3669 5.43321 13.6237 5.04681 13.6237 4.34361H13.6249ZM11.4001 12.2C11.5345 12.2 11.6689 12.1964 11.8021 12.188C11.739 12.3651 11.6595 12.5358 11.5645 12.698L7.40886 19.7864C7.224 20.1018 6.93945 20.3466 6.60006 20.4824V12.0392C6.83539 11.9034 7.01766 11.6918 7.11706 11.4389C7.21646 11.186 7.22711 10.9069 7.14726 10.6472C8.33628 11.6521 9.84332 12.2023 11.4001 12.2ZM4.80006 5.60001C4.80006 7.22001 5.38326 8.70441 6.35286 9.85281C6.0709 9.76588 5.7668 9.78588 5.49865 9.90898C5.2305 10.0321 5.0171 10.2497 4.89923 10.5201C4.78135 10.7906 4.76726 11.0951 4.85965 11.3753C4.95204 11.6555 5.14443 11.8919 5.40006 12.0392V20.492C5.0503 20.3584 4.75655 20.1095 4.56726 19.7864L0.411661 12.698C0.164528 12.2763 0.024191 11.8005 0.00285857 11.3122C-0.0184738 10.8239 0.0798451 10.3377 0.289261 9.89601L2.04006 6.20001H1.80006C1.32267 6.20001 0.864834 6.01037 0.527269 5.6728C0.189703 5.33524 6.10642e-05 4.8774 6.10642e-05 4.40001V2.00001C6.10642e-05 1.84088 0.0632753 1.68827 0.175797 1.57575C0.288319 1.46323 0.440931 1.40001 0.600061 1.40001C0.759191 1.40001 0.911803 1.46323 1.02433 1.57575C1.13685 1.68827 1.20006 1.84088 1.20006 2.00001V4.40001C1.20006 4.55914 1.26328 4.71175 1.3758 4.82428C1.48832 4.9368 1.64093 5.00001 1.80006 5.00001H4.82646C4.80868 5.19952 4.79987 5.39972 4.80006 5.60001Z" fill="#1A1A1A"/>
</svg>
